<svg xmlns="http://www.w3.org/2000/svg" width="128" height="128">
<path fill="#0050C0" d="M0 0V128H128V0H0Z"/>
<path fill="white" d="M72 95V102C72 102 78.8024 102.002 79 102C89.7729 101.901 95.0125 99.0662 95.0125 89.6627C95.0125 83.3673 94.05 80.0867 94.05 74.5007C94.05 71.3973 96.4625 68.1167 106 67.9393V60.314C96.4625 60.1367 94.05 56.856 94.05 53.7527C94.05 48.2553 95.0125 44.7973 95.0125 38.5907C95.0125 29.0147 89.9375 26 78.7375 26H72V33H76C83.175 33 84.425 34.1573 84.425 39.1227C84.425 43.822 84.075 48.344 84.075 53.5753C84.075 60.314 86.525 62.8853 92.825 63.9493V64.304C86.525 65.368 84.075 67.9393 84.075 74.678C84.075 80.0867 84.425 84.3427 84.425 89.1307C84.425 94.096 83.175 95 76 95H72ZM26 95V102H52V26H26V33H42V95H26Z"/>
</svg>
